<svg width="400" height="300" viewBox="0 0 400 300" xmlns="http://www.w3.org/2000/svg">
  <defs>
    <linearGradient id="gradient" x1="0%" y1="0%" x2="100%" y2="100%">
      <stop offset="0%" style="stop-color:#37ae94;stop-opacity:0.1" />
      <stop offset="100%" style="stop-color:#4770b1;stop-opacity:0.2" />
    </linearGradient>
  </defs>
  
  <!-- Background -->
  <rect width="400" height="300" fill="url(#gradient)"/>
  
  <!-- Main icon -->
  <g transform="translate(200, 150)">
    <!-- Circle background -->
    <circle cx="0" cy="0" r="40" fill="#37ae94" opacity="0.2"/>
    
    <!-- Tag icon -->
    <g transform="translate(-20, -20)">
      <path d="M20 2L38 2C39.1 2 40 2.9 40 4L40 20C40 21.1 39.1 22 38 22L20 22C19.4 22 18.8 21.7 18.4 21.3L2.4 5.3C1.6 4.5 1.6 3.2 2.4 2.4C3.2 1.6 4.5 1.6 5.3 2.4L18.4 15.5C18.8 15.9 19.4 16.2 20 16.2L36 16.2L36 4L20 4L20 2Z" fill="#37ae94"/>
      <circle cx="30" cy="10" r="3" fill="white"/>
    </g>
    
    <!-- Text -->
    <text x="0" y="60" text-anchor="middle" font-family="Arial, sans-serif" font-size="14" fill="#55585a">
      Topic Image
    </text>
  </g>
</svg>


